<?xml version="1.0" encoding="utf-8"?>
<!-- Generator: Adobe Illustrator 22.1.0, SVG Export Plug-In . SVG Version: 6.00 Build 0)  -->
<svg version="1.1" id="Layer_1" xmlns="http://www.w3.org/2000/svg" xmlns:xlink="http://www.w3.org/1999/xlink" x="0px" y="0px"
	 viewBox="0 0 280.7 64" style="enable-background:new 0 0 280.7 64;" xml:space="preserve">
<style type="text/css">
	.st0{fill:#191919;}
</style>
<path class="st0" d="M88.7,35.4h10.9c0-2.8-2.3-5-5.2-5C91.2,30.5,89.1,32.6,88.7,35.4 M88.7,38.8c0.4,3.4,2.8,5.3,6,5.3
	c2.9,0,4.8-1.7,5.7-2.8l3.7,2.4c-1.7,2.5-5.5,4.7-9.8,4.7c-5.9,0-10.9-4-10.9-10.6c0-6.5,4.8-11.4,11.1-11.4c6.3,0,10,5.1,10,10.3
	c0,0.7,0,1.4-0.1,2H88.7z M113.6,43h5.9c3.2,0,6.4-1,6.4-4.5c0-3.1-2.4-4.4-6.2-4.4h-6.1V43z M113.6,29.8h5.9c2.9,0,5.2-1.3,5.2-4.1
	c0-2.8-2.3-3.9-5.7-3.9h-5.4C113.6,21.8,113.6,29.8,113.6,29.8z M108,17.1h12.2c4.7,0,10.2,1.7,10.2,7.8c0,3.4-2.1,5.7-5.2,6.6v0.1
	c3.7,0.6,6.5,3.2,6.5,7.4c0,6.5-6,8.8-12.5,8.8H108C108,47.8,108,17.1,108,17.1z M135.2,15h5.6v32.8h-5.6V15z M155.4,31.1
	c-3.6,0-5.8,2.9-5.8,6.2c0,3.4,2.2,6.3,5.8,6.3c3.7,0,5.9-2.9,5.9-6.3C161.3,34,159.2,31.1,155.4,31.1 M155.4,48.4
	c-6.3,0-11.3-4.5-11.3-11.1c0-6.5,5-10.9,11.3-10.9c6.3,0,11.4,4.4,11.4,10.9C166.8,43.9,161.8,48.4,155.4,48.4 M189.3,29.9
	l-3.2,3.4c-1-1-2.3-2.3-4.9-2.3c-3.5,0-5.9,2.8-5.9,6.3c0,3.5,2.4,6.4,6,6.4c2.6,0,4.6-1.7,5.3-2.6l3.2,3.6
	c-1.7,1.7-4.6,3.7-8.7,3.7c-6.9,0-11.4-4.9-11.4-11.1c0-6.3,4.9-10.9,11.5-10.9C184.6,26.4,187.7,27.9,189.3,29.9 M201.2,38.1
	l-3.2,3.3v6.3h-5.6V15h5.6v20.5h0.1l7.7-8.5h7l-7.5,7.5l8.1,13.2h-6.8L201.2,38.1z M219,35.4h10.9c0-2.8-2.3-5-5.2-5
	C221.6,30.5,219.5,32.6,219,35.4 M219,38.8c0.4,3.4,2.8,5.3,6,5.3c2.9,0,4.8-1.7,5.7-2.8l3.7,2.4c-1.7,2.5-5.5,4.7-9.8,4.7
	c-5.9,0-10.9-4-10.9-10.6c0-6.5,4.8-11.4,11.1-11.4c6.3,0,10,5.1,10,10.3c0,0.7,0,1.4-0.1,2H219L219,38.8z M238,27h5.3v3.3h0.1
	c1.1-2.3,3.5-3.8,6.1-3.8c0.6,0,1.1,0,1.6,0.2v5c-0.6-0.2-1.5-0.3-2.2-0.3c-3.6,0-5.4,2.8-5.4,5.9v10.5H238C238,47.8,238,27,238,27z
	 M56.9,0H5.8C2.6,0,0,2.6,0,5.8c0,0,0,0,0,0v51.8c0,3.2,2.6,5.8,5.8,5.8c0,0,0,0,0,0h51.1c3.2,0,5.8-2.6,5.8-5.8c0,0,0,0,0,0V5.8
	C62.7,2.6,60.1,0,56.9,0C56.9,0,56.9,0,56.9,0z M51.5,32.7h-11c-1.4,0-2.5-1.2-2.5-2.5s1.1-2.5,2.5-2.5h3.1
	c-1.7-5.1-6.6-8.8-12.3-8.8c-7.2,0-13,5.8-13,13c0,7.2,5.8,13,13,13c5.8,0,10.8-3.7,12.4-9.1h5.1c-1.8,7.8-8.9,13.9-17.4,13.9
	c-9.9,0-17.9-8-17.9-17.9c0-9.9,8-17.9,17.9-17.9c8.5,0,15.5,6,17.4,13.7h2.7c1.4,0,2.5,1.2,2.5,2.5S52.9,32.7,51.5,32.7z"/>
<g>
	<path class="st0" d="M280.5,47.9h-20.6V43l11.9-11.2c1.6-1.5,2.9-3.2,2.9-5.4c0-2.7-1.9-4.4-4.5-4.4c-2.7,0-4.5,2-4.9,4.8h-5.5
		c0.6-6.2,5.3-9.5,10.7-9.5c5.2,0,10.1,2.9,10.1,8.8c0,4.1-2.4,6.7-5.1,9.1L267,43h13.5V47.9z"/>
</g>
</svg>
