<?xml version="1.0" encoding="UTF-8" standalone="no"?>
<!DOCTYPE svg PUBLIC "-//W3C//DTD SVG 1.1//EN" "http://www.w3.org/Graphics/SVG/1.1/DTD/svg11.dtd">
<svg version="1.1" xmlns:dc="http://purl.org/dc/elements/1.1/" xmlns="http://www.w3.org/2000/svg" xmlns:xl="http://www.w3.org/1999/xlink" viewBox="0 96.4 282.832 63.4" width="282.832" height="63.4">
  <defs/>
  <g id="Canvas_1" fill="none" fill-opacity="1" stroke-dasharray="none" stroke-opacity="1" stroke="none">
    <title>Canvas 1</title>
    <g id="Canvas_1_Orange_Black">
      <title>Orange Black</title>
      <g id="Graphic_20">
        <path d="M 88.7 131.8 L 99.6 131.8 C 99.6 129 97.3 126.8 94.4 126.8 C 91.2 126.9 89.1 129 88.7 131.8 Z M 88.7 135.2 C 89.1 138.6 91.5 140.5 94.7 140.5 C 97.6 140.5 99.5 138.8 100.4 137.7 L 104.1 140.1 C 102.4 142.6 98.6 144.8 94.3 144.8 C 88.4 144.8 83.4 140.8 83.4 134.2 C 83.4 127.7 88.2 122.8 94.5 122.8 C 100.8 122.8 104.5 127.9 104.5 133.1 C 104.5 133.8 104.5 134.5 104.4 135.1 L 88.7 135.2 Z M 113.6 139.4 L 119.5 139.4 C 122.7 139.4 125.9 138.4 125.9 134.9 C 125.9 131.8 123.5 130.5 119.7 130.5 L 113.6 130.5 Z M 113.6 126.2 L 119.5 126.2 C 122.4 126.2 124.7 124.9 124.7 122.1 C 124.7 119.3 122.4 118.2 119 118.2 L 113.6 118.2 Z M 108 113.5 L 120.2 113.5 C 124.9 113.5 130.4 115.2 130.4 121.3 C 130.4 124.7 128.3 127 125.2 127.9 L 125.2 128 C 128.9 128.6 131.7 131.2 131.7 135.4 C 131.7 141.9 125.7 144.2 119.2 144.2 L 108 144.2 Z M 135.2 111.4 L 140.8 111.4 L 140.8 144.2 L 135.2 144.2 Z M 155.4 127.5 C 151.8 127.5 149.6 130.4 149.6 133.7 C 149.6 137.1 151.8 140 155.4 140 C 159.1 140 161.3 137.1 161.3 133.7 C 161.3 130.4 159.2 127.5 155.4 127.5 Z M 155.4 144.8 C 149.1 144.8 144.1 140.3 144.1 133.7 C 144.1 127.2 149.1 122.8 155.4 122.8 C 161.7 122.8 166.8 127.2 166.8 133.7 C 166.8 140.3 161.8 144.8 155.4 144.8 Z M 189.3 126.3 L 186.1 129.7 C 185.1 128.7 183.8 127.4 181.2 127.4 C 177.7 127.4 175.3 130.2 175.3 133.7 C 175.3 137.2 177.7 140.1 181.3 140.1 C 183.9 140.1 185.9 138.4 186.6 137.5 L 189.8 141.1 C 188.1 142.8 185.2 144.8 181.1 144.8 C 174.2 144.8 169.7 139.9 169.7 133.7 C 169.7 127.4 174.6 122.8 181.2 122.8 C 184.6 122.8 187.7 124.3 189.3 126.3 Z M 201.2 134.5 L 198 137.8 L 198 144.1 L 192.4 144.1 L 192.4 111.4 L 198 111.4 L 198 131.9 L 198.1 131.9 L 205.8 123.4 L 212.8 123.4 L 205.3 130.9 L 213.4 144.1 L 206.6 144.1 Z M 219 131.8 L 229.9 131.8 C 229.9 129 227.6 126.8 224.7 126.8 C 221.6 126.9 219.5 129 219 131.8 Z M 219 135.2 C 219.4 138.6 221.8 140.5 225 140.5 C 227.9 140.5 229.8 138.8 230.7 137.7 L 234.4 140.1 C 232.7 142.6 228.9 144.8 224.6 144.8 C 218.7 144.8 213.7 140.8 213.7 134.2 C 213.7 127.7 218.5 122.8 224.8 122.8 C 231.1 122.8 234.8 127.9 234.8 133.1 C 234.8 133.8 234.8 134.5 234.7 135.1 L 219 135.2 Z M 238 123.4 L 243.3 123.4 L 243.3 126.7 L 243.4 126.7 C 244.5 124.4 246.9 122.9 249.5 122.9 C 250.1 122.9 250.6 122.9 251.1 123.1 L 251.1 128.1 C 250.5 127.9 249.6 127.8 248.9 127.8 C 245.3 127.8 243.5 130.6 243.5 133.7 L 243.5 144.2 L 238 144.2 Z M 56.9 96.4 L 5.8 96.4 C 2.6 96.4 0 99 0 102.2 L 0 154 C 0 157.2 2.6 159.8 5.8 159.8 L 56.9 159.8 C 60.1 159.8 62.7 157.2 62.7 154 L 62.7 102.2 C 62.7 99 60.1 96.4 56.9 96.4 Z M 51.5 129.1 L 40.5 129.1 C 39.1 129.1 38 127.9 38 126.6 C 38 125.3 39.1 124.1 40.5 124.1 L 43.6 124.1 C 41.9 119 37 115.3 31.3 115.3 C 24.1 115.3 18.3 121.1 18.3 128.3 C 18.3 135.5 24.1 141.3 31.3 141.3 C 37.1 141.3 42.1 137.6 43.7 132.2 L 48.8 132.2 C 47 140 39.9 146.1 31.4 146.1 C 21.5 146.1 13.5 138.1 13.5 128.2 C 13.5 118.3 21.5 110.3 31.4 110.3 C 39.9 110.3 46.9 116.3 48.8 124 L 51.5 124 C 52.9 124 54 125.2 54 126.5 C 54 127.8 52.9 129.1 51.5 129.1 Z" fill="#191919"/>
      </g>
      <g id="Group_15">
        <g id="Graphic_17">
          <path d="M 63.4 102.2 C 63.4 99 60.8 96.4 57.5 96.4 L 6 96.4 C 2.8 96.4 .2 99 .2 102.2 L .2 153.8 C .2 157 2.8 159.6 6.1 159.6 L 57.6 159.6 C 60.8 159.6 63.5 157 63.5 153.8 L 63.5 102.2 Z" fill="#ea5b10"/>
        </g>
        <g id="Graphic_16">
          <path d="M 51.9 124 L 49.2 124 C 47.4 116.3 40.3 110.3 31.9 110.3 C 22.1 110.3 14.1 118.3 14.1 128.1 C 14.1 137.9 22.1 145.9 31.9 145.9 C 40.4 145.9 47.5 139.8 49.3 132 L 44.2 132 C 42.6 137.4 37.7 141.1 31.9 141.1 C 24.8 141.1 19 135.3 19 128.1 C 19 121 24.8 115.2 31.9 115.2 C 37.6 115.2 42.4 118.9 44.1 123.9 L 41 123.9 C 39.6 123.9 38.5 125.1 38.5 126.4 C 38.5 127.8 39.6 128.9 41 128.9 L 51.9 128.9 C 53.3 128.9 54.4 127.7 54.4 126.4 C 54.4 125.1 53.3 124 51.9 124 Z" fill="white"/>
        </g>
      </g>
      <g id="Graphic_14">
        <path d="M 88.8 135.1 C 89.2 138.5 91.6 140.4 94.8 140.4 C 97.6 140.4 99.5 138.7 100.5 137.6 L 104.2 140 C 102.5 142.5 98.7 144.7 94.4 144.7 C 88.5 144.7 83.5 140.7 83.5 134.2 C 83.5 127.7 88.3 122.9 94.5 122.9 C 100.8 122.9 104.5 127.9 104.5 133.2 C 104.5 133.9 104.5 134.6 104.4 135.2 L 88.8 135.2 Z M 88.8 131.8 L 99.6 131.8 C 99.6 129 97.3 126.8 94.4 126.8 C 91.3 126.8 89.2 129 88.8 131.8 Z" fill="#ea5b0c"/>
      </g>
      <g id="Graphic_13">
        <path d="M 107.9 113.5 L 120 113.5 C 124.7 113.5 130.1 115.2 130.1 121.3 C 130.1 124.7 128 127 125 127.9 L 125 128 C 128.7 128.6 131.5 131.1 131.5 135.3 C 131.5 141.8 125.6 144 119 144 L 107.8 144 L 107.8 113.5 Z M 113.5 126.2 L 119.4 126.2 C 122.2 126.2 124.5 125 124.5 122.1 C 124.5 119.3 122.3 118.2 118.8 118.2 L 113.5 118.2 L 113.5 126.2 Z M 113.5 139.3 L 119.3 139.3 C 122.4 139.3 125.7 138.3 125.7 134.8 C 125.7 131.7 123.3 130.4 119.5 130.4 L 113.5 130.4 L 113.5 139.3 Z" fill="#191919"/>
      </g>
      <g id="Graphic_12">
        <title>Bézier</title>
        <rect x="135" y="111.4" width="5.6" height="32.6" fill="#191919"/>
      </g>
      <g id="Graphic_11">
        <path d="M 155.1 144.7 C 148.9 144.7 143.9 140.3 143.9 133.7 C 143.9 127.2 148.9 122.8 155.1 122.8 C 161.4 122.8 166.4 127.2 166.4 133.7 C 166.5 140.2 161.4 144.7 155.1 144.7 Z M 155.1 127.5 C 151.5 127.5 149.3 130.4 149.3 133.7 C 149.3 137.1 151.5 140 155.1 140 C 158.8 140 160.9 137.1 160.9 133.7 C 160.9 130.4 158.8 127.5 155.1 127.5 Z" fill="#191919"/>
      </g>
      <g id="Graphic_10">
        <path d="M 188.8 126.3 L 185.6 129.7 C 184.7 128.7 183.3 127.5 180.8 127.5 C 177.3 127.5 174.9 130.3 174.9 133.7 C 174.9 137.1 177.3 140 180.8 140 C 183.4 140 185.4 138.3 186.1 137.5 L 189.2 141 C 187.5 142.7 184.6 144.7 180.6 144.7 C 173.8 144.7 169.2 139.9 169.2 133.7 C 169.2 127.5 174 122.8 180.7 122.8 C 184.1 122.8 187.1 124.2 188.8 126.3 Z" fill="#191919"/>
      </g>
      <g id="Graphic_9">
        <path d="M 200.6 134.4 L 197.4 137.7 L 197.4 144 L 191.9 144 L 191.9 111.4 L 197.4 111.4 L 197.4 131.8 L 197.6 131.8 L 205.2 123.4 L 212.2 123.4 L 204.7 130.9 L 212.8 144 L 206 144 Z" fill="#191919"/>
      </g>
      <g id="Graphic_8">
        <path d="M 218.3 135.1 C 218.7 138.5 221.1 140.4 224.3 140.4 C 227.1 140.4 229 138.7 230 137.6 L 233.7 140 C 232 142.5 228.2 144.7 223.9 144.7 C 218 144.7 213 140.7 213 134.2 C 213 127.7 217.8 122.9 224 122.9 C 230.3 122.9 234 127.9 234 133.2 C 234 133.9 234 134.6 233.9 135.2 L 218.3 135.2 Z M 218.3 131.8 L 229.1 131.8 C 229.1 129 226.8 126.8 223.9 126.8 C 220.8 126.8 218.8 129 218.3 131.8 Z" fill="#191919"/>
      </g>
      <g id="Graphic_7">
        <path d="M 237.2 123.4 L 242.5 123.4 L 242.5 126.6 L 242.6 126.6 C 243.7 124.4 246 122.8 248.7 122.8 C 249.3 122.8 249.8 122.8 250.3 123 L 250.3 128 C 249.7 127.8 248.8 127.7 248.1 127.7 C 244.5 127.7 242.7 130.5 242.7 133.6 L 242.7 144 L 237.2 144 L 237.2 123.4 Z" fill="#191919"/>
      </g>
    </g>
    <g id="Canvas_1_Numbers_as_Shapes">
      <title>Numbers as Shapes</title>
      <g id="Graphic_33">
        <title>3</title>
        <path d="M 267.292 126.434 L 268.594 126.434 C 269.322 126.434 270.029 126.392 270.715 126.308 C 271.401 126.224 272.017 126.042 272.563 125.762 C 273.109 125.482 273.55 125.076 273.886 124.544 C 274.222 124.012 274.39 123.298 274.39 122.402 C 274.39 121.254 273.998 120.316 273.214 119.588 C 272.43 118.86 271.408 118.496 270.148 118.496 C 269.14 118.496 268.237 118.783 267.439 119.357 C 266.641 119.931 266.06 120.736 265.696 121.772 L 260.362 120.344 C 260.698 119.252 261.174 118.3 261.79 117.488 C 262.406 116.676 263.134 116.011 263.974 115.493 C 264.814 114.975 265.738 114.59 266.746 114.338 C 267.754 114.086 268.804 113.96 269.896 113.96 C 271.184 113.96 272.402 114.128 273.55 114.464 C 274.698 114.8 275.706 115.297 276.574 115.955 C 277.442 116.613 278.135 117.439 278.653 118.433 C 279.171 119.427 279.43 120.582 279.43 121.898 C 279.43 123.49401 278.982 124.915 278.086 126.161 C 277.19 127.40701 275.944 128.226 274.348 128.618 L 274.348 128.702 C 276.252 128.982 277.694 129.794 278.674 131.138 C 279.654 132.48201 280.144 134.078 280.144 135.926 C 280.144 137.35401 279.871 138.614 279.325 139.706 C 278.779 140.798 278.044 141.715 277.12 142.457 C 276.196 143.199 275.125 143.759 273.907 144.137 C 272.689 144.515 271.422 144.704 270.106 144.704 C 268.874 144.704 267.712 144.571 266.62 144.305 C 265.528 144.039 264.541 143.626 263.659 143.066 C 262.777 142.506 262.014 141.785 261.37 140.903 C 260.726 140.021 260.236 138.964 259.9 137.732 L 265.276 136.304 C 265.584 137.536 266.13 138.488 266.914 139.16 C 267.698 139.832 268.762 140.168 270.106 140.168 C 270.778 140.168 271.415 140.056 272.017 139.832 C 272.619 139.608 273.151 139.293 273.613 138.887 C 274.075 138.481 274.439 137.991 274.705 137.417 C 274.971 136.843 275.104 136.206 275.104 135.506 C 275.104 134.554 274.901 133.777 274.495 133.175 C 274.089 132.573 273.571 132.111 272.941 131.789 C 272.311 131.467 271.604 131.25 270.82 131.138 C 270.036 131.026 269.266 130.97 268.51 130.97 L 267.292 130.97 Z" fill="#eb5b0d"/>
      </g>
    </g>
  </g>
</svg>
