<?xml version="1.0" encoding="UTF-8" standalone="no"?>
<!-- Generator: Adobe Illustrator 17.0.0, SVG Export Plug-In . SVG Version: 6.00 Build 0)  -->

<svg
   xmlns:dc="http://purl.org/dc/elements/1.1/"
   xmlns:cc="http://creativecommons.org/ns#"
   xmlns:rdf="http://www.w3.org/1999/02/22-rdf-syntax-ns#"
   xmlns:svg="http://www.w3.org/2000/svg"
   xmlns="http://www.w3.org/2000/svg"
   xmlns:sodipodi="http://sodipodi.sourceforge.net/DTD/sodipodi-0.dtd"
   xmlns:inkscape="http://www.inkscape.org/namespaces/inkscape"
   version="1.1"
   id="Layer_1"
   x="0px"
   y="0px"
   width="62.722"
   height="63.396"
   viewBox="0 0 62.722 63.396"
   enable-background="new 0 0 254 64"
   xml:space="preserve"
   sodipodi:docname="eBlocker_white.svg"
   inkscape:version="0.92.2 5c3e80d, 2017-08-06"><metadata
     id="metadata29"><rdf:RDF><cc:Work
         rdf:about=""><dc:format>image/svg+xml</dc:format><dc:type
           rdf:resource="http://purl.org/dc/dcmitype/StillImage" /><dc:title></dc:title></cc:Work></rdf:RDF></metadata><defs
     id="defs27" /><sodipodi:namedview
     pagecolor="#ffffff"
     bordercolor="#666666"
     borderopacity="1"
     objecttolerance="10"
     gridtolerance="10"
     guidetolerance="10"
     inkscape:pageopacity="0"
     inkscape:pageshadow="2"
     inkscape:window-width="1268"
     inkscape:window-height="644"
     id="namedview25"
     showgrid="false"
     fit-margin-top="0"
     fit-margin-left="0"
     fit-margin-right="0"
     fit-margin-bottom="0"
     inkscape:zoom="1.1338583"
     inkscape:cx="28.222222"
     inkscape:cy="31.396"
     inkscape:window-x="0"
     inkscape:window-y="0"
     inkscape:window-maximized="0"
     inkscape:current-layer="g22" /><g
     id="g22"><path
       d="M 56.901,0 H 5.821 C 2.606,0 0,2.606 0,5.821 v 51.754 c 0,3.215 2.606,5.821 5.821,5.821 h 51.08 c 3.215,0 5.821,-2.606 5.821,-5.821 V 5.821 C 62.722,2.606 60.116,0 56.901,0 Z M 51.529,32.71 H 40.562 c -1.372,0 -2.494,-1.157 -2.494,-2.529 0,-1.372 1.122,-2.529 2.494,-2.529 h 3.093 c -1.741,-5.058 -6.573,-8.767 -12.266,-8.767 -7.159,0 -12.962,5.807 -12.962,12.965 0,7.159 5.803,12.994 12.962,12.994 5.825,0 10.752,-3.703 12.386,-9.099 h 5.128 c -1.788,7.756 -8.908,13.912 -17.425,13.912 -9.865,0 -17.862,-8.012 -17.862,-17.877 0,-9.864 7.997,-17.877 17.862,-17.877 8.454,0 15.531,5.993 17.384,13.749 h 2.667 c 1.372,0 2.495,1.157 2.495,2.529 0,1.372 -1.123,2.529 -2.495,2.529 z"
       id="path20"
       inkscape:connector-curvature="0"
       style="fill:#ffffff" /></g></svg>