<?xml version="1.0" encoding="utf-8"?>
<!-- Generator: Adobe Illustrator 21.1.0, SVG Export Plug-In . SVG Version: 6.00 Build 0)  -->
<svg version="1.1" id="Layer_1" xmlns="http://www.w3.org/2000/svg" xmlns:xlink="http://www.w3.org/1999/xlink" x="0px" y="0px"
	 viewBox="0 0 280.7 64" style="enable-background:new 0 0 280.7 64;" xml:space="preserve">
<style type="text/css">
	.st0{display:none;fill:#191919;}
	.st1{display:none;}
	.st2{display:inline;fill:#191919;}
	.st3{fill:#EA5B10;}
	.st4{fill:#FFFFFF;}
	.st5{fill:#EA5B0C;}
	.st6{fill:#191919;}
</style>
<path class="st0" d="M88.7,35.4h10.9c0-2.8-2.3-5-5.2-5C91.2,30.5,89.1,32.6,88.7,35.4 M88.7,38.8c0.4,3.4,2.8,5.3,6,5.3
	c2.9,0,4.8-1.7,5.7-2.8l3.7,2.4c-1.7,2.5-5.5,4.7-9.8,4.7c-5.9,0-10.9-4-10.9-10.6c0-6.5,4.8-11.4,11.1-11.4c6.3,0,10,5.1,10,10.3
	c0,0.7,0,1.4-0.1,2L88.7,38.8L88.7,38.8z M113.6,43h5.9c3.2,0,6.4-1,6.4-4.5c0-3.1-2.4-4.4-6.2-4.4h-6.1
	C113.6,34.1,113.6,43,113.6,43z M113.6,29.8h5.9c2.9,0,5.2-1.3,5.2-4.1s-2.3-3.9-5.7-3.9h-5.4V29.8z M108,17.1h12.2
	c4.7,0,10.2,1.7,10.2,7.8c0,3.4-2.1,5.7-5.2,6.6v0.1c3.7,0.6,6.5,3.2,6.5,7.4c0,6.5-6,8.8-12.5,8.8H108C108,47.8,108,17.1,108,17.1z
	 M135.2,15h5.6v32.8h-5.6V15z M155.4,31.1c-3.6,0-5.8,2.9-5.8,6.2c0,3.4,2.2,6.3,5.8,6.3c3.7,0,5.9-2.9,5.9-6.3
	C161.3,34,159.2,31.1,155.4,31.1 M155.4,48.4c-6.3,0-11.3-4.5-11.3-11.1c0-6.5,5-10.9,11.3-10.9s11.4,4.4,11.4,10.9
	C166.8,43.9,161.8,48.4,155.4,48.4 M189.3,29.9l-3.2,3.4c-1-1-2.3-2.3-4.9-2.3c-3.5,0-5.9,2.8-5.9,6.3s2.4,6.4,6,6.4
	c2.6,0,4.6-1.7,5.3-2.6l3.2,3.6c-1.7,1.7-4.6,3.7-8.7,3.7c-6.9,0-11.4-4.9-11.4-11.1c0-6.3,4.9-10.9,11.5-10.9
	C184.6,26.4,187.7,27.9,189.3,29.9 M201.2,38.1l-3.2,3.3v6.3h-5.6V15h5.6v20.5h0.1l7.7-8.5h7l-7.5,7.5l8.1,13.2h-6.8L201.2,38.1z
	 M219,35.4h10.9c0-2.8-2.3-5-5.2-5C221.6,30.5,219.5,32.6,219,35.4 M219,38.8c0.4,3.4,2.8,5.3,6,5.3c2.9,0,4.8-1.7,5.7-2.8l3.7,2.4
	c-1.7,2.5-5.5,4.7-9.8,4.7c-5.9,0-10.9-4-10.9-10.6c0-6.5,4.8-11.4,11.1-11.4s10,5.1,10,10.3c0,0.7,0,1.4-0.1,2L219,38.8L219,38.8z
	 M238,27h5.3v3.3h0.1c1.1-2.3,3.5-3.8,6.1-3.8c0.6,0,1.1,0,1.6,0.2v5c-0.6-0.2-1.5-0.3-2.2-0.3c-3.6,0-5.4,2.8-5.4,5.9v10.5H238
	C238,47.8,238,27,238,27z M56.9,0H5.8C2.6,0,0,2.6,0,5.8l0,0v51.8c0,3.2,2.6,5.8,5.8,5.8l0,0h51.1c3.2,0,5.8-2.6,5.8-5.8l0,0V5.8
	C62.7,2.6,60.1,0,56.9,0L56.9,0z M51.5,32.7h-11c-1.4,0-2.5-1.2-2.5-2.5s1.1-2.5,2.5-2.5h3.1c-1.7-5.1-6.6-8.8-12.3-8.8
	c-7.2,0-13,5.8-13,13s5.8,13,13,13c5.8,0,10.8-3.7,12.4-9.1h5.1c-1.8,7.8-8.9,13.9-17.4,13.9c-9.9,0-17.9-8-17.9-17.9
	s8-17.9,17.9-17.9c8.5,0,15.5,6,17.4,13.7h2.7c1.4,0,2.5,1.2,2.5,2.5S52.9,32.7,51.5,32.7z"/>
<g class="st1">
	<path class="st2" d="M280.5,47.9h-20.6V43l11.9-11.2c1.6-1.5,2.9-3.2,2.9-5.4c0-2.7-1.9-4.4-4.5-4.4c-2.7,0-4.5,2-4.9,4.8h-5.5
		c0.6-6.2,5.3-9.5,10.7-9.5c5.2,0,10.1,2.9,10.1,8.8c0,4.1-2.4,6.7-5.1,9.1L267,43h13.5V47.9z"/>
</g>
<g>
	<path class="st3" d="M63.4,5.8c0-3.2-2.6-5.8-5.9-5.8H6C2.8,0,0.2,2.6,0.2,5.8v51.6c0,3.2,2.6,5.8,5.9,5.8h51.5
		c3.2,0,5.9-2.6,5.9-5.8V5.8L63.4,5.8z"/>
	<path class="st4" d="M51.9,27.6h-2.7c-1.8-7.7-8.9-13.7-17.3-13.7c-9.8,0-17.8,8-17.8,17.8c0,9.8,8,17.8,17.8,17.8
		c8.5,0,15.6-6.1,17.4-13.9h-5.1c-1.6,5.4-6.5,9.1-12.3,9.1c-7.1,0-12.9-5.8-12.9-13c0-7.1,5.8-12.9,12.9-12.9
		c5.7,0,10.5,3.7,12.2,8.7H41c-1.4,0-2.5,1.2-2.5,2.5c0,1.4,1.1,2.5,2.5,2.5h10.9c1.4,0,2.5-1.2,2.5-2.5
		C54.4,28.7,53.3,27.6,51.9,27.6L51.9,27.6z"/>
</g>
<path class="st5" d="M88.8,38.7c0.4,3.4,2.8,5.3,6,5.3c2.8,0,4.7-1.7,5.7-2.8l3.7,2.4c-1.7,2.5-5.5,4.7-9.8,4.7
	c-5.9,0-10.9-4-10.9-10.5c0-6.5,4.8-11.3,11-11.3c6.3,0,10,5,10,10.3c0,0.7,0,1.4-0.1,2H88.8L88.8,38.7z M88.8,35.4h10.8
	c0-2.8-2.3-5-5.2-5C91.3,30.4,89.2,32.6,88.8,35.4L88.8,35.4z"/>
<path class="st6" d="M107.9,17.1H120c4.7,0,10.1,1.7,10.1,7.8c0,3.4-2.1,5.7-5.1,6.6v0.1c3.7,0.6,6.5,3.1,6.5,7.3
	c0,6.5-5.9,8.7-12.5,8.7h-11.2V17.1L107.9,17.1z M113.5,29.8h5.9c2.8,0,5.1-1.2,5.1-4.1c0-2.8-2.2-3.9-5.7-3.9h-5.3V29.8L113.5,29.8
	z M113.5,42.9h5.8c3.1,0,6.4-1,6.4-4.5c0-3.1-2.4-4.4-6.2-4.4h-6V42.9L113.5,42.9z"/>
<polygon class="st6" points="140.6,47.6 135,47.6 135,15 140.6,15 140.6,47.6 "/>
<path class="st6" d="M155.1,48.3c-6.2,0-11.2-4.4-11.2-11c0-6.5,5-10.9,11.2-10.9c6.3,0,11.3,4.4,11.3,10.9
	C166.5,43.8,161.4,48.3,155.1,48.3L155.1,48.3z M155.1,31.1c-3.6,0-5.8,2.9-5.8,6.2c0,3.4,2.2,6.3,5.8,6.3c3.7,0,5.8-2.9,5.8-6.3
	C160.9,34,158.8,31.1,155.1,31.1L155.1,31.1z"/>
<path class="st6" d="M188.8,29.9l-3.2,3.4c-0.9-1-2.3-2.2-4.8-2.2c-3.5,0-5.9,2.8-5.9,6.2c0,3.4,2.4,6.3,5.9,6.3
	c2.6,0,4.6-1.7,5.3-2.5l3.1,3.5c-1.7,1.7-4.6,3.7-8.6,3.7c-6.8,0-11.4-4.8-11.4-11c0-6.2,4.8-10.9,11.5-10.9
	C184.1,26.4,187.1,27.8,188.8,29.9L188.8,29.9z"/>
<polygon class="st6" points="200.6,38 197.4,41.3 197.4,47.6 191.9,47.6 191.9,15 197.4,15 197.4,35.4 197.6,35.4 205.2,27 
	212.2,27 204.7,34.5 212.8,47.6 206,47.6 200.6,38 "/>
<path class="st6" d="M218.3,38.7c0.4,3.4,2.8,5.3,6,5.3c2.8,0,4.7-1.7,5.7-2.8l3.7,2.4c-1.7,2.5-5.5,4.7-9.8,4.7
	c-5.9,0-10.9-4-10.9-10.5c0-6.5,4.8-11.3,11-11.3c6.3,0,10,5,10,10.3c0,0.7,0,1.4-0.1,2H218.3L218.3,38.7z M218.3,35.4h10.8
	c0-2.8-2.3-5-5.2-5C220.8,30.4,218.8,32.6,218.3,35.4L218.3,35.4z"/>
<path class="st6" d="M237.2,27h5.3v3.2h0.1c1.1-2.2,3.4-3.8,6.1-3.8c0.6,0,1.1,0,1.6,0.2v5c-0.6-0.2-1.5-0.3-2.2-0.3
	c-3.6,0-5.4,2.8-5.4,5.9v10.4h-5.5V27L237.2,27z"/>
<g>
	<path class="st5" d="M280.1,47.6h-20.5v-4.9l11.8-11.2c1.6-1.5,2.9-3.2,2.9-5.4c0-2.6-1.9-4.4-4.5-4.4c-2.7,0-4.5,2-4.9,4.8h-5.5
		c0.6-6.2,5.2-9.5,10.6-9.5c5.2,0,10.1,2.9,10.1,8.7c0,4.1-2.4,6.7-5,9.1l-8.3,7.8h13.5V47.6z"/>
</g>
</svg>
