<?xml version="1.0" encoding="UTF-8" standalone="no"?>
<!DOCTYPE svg PUBLIC "-//W3C//DTD SVG 1.1//EN" "http://www.w3.org/Graphics/SVG/1.1/DTD/svg11.dtd">
<svg xmlns:dc="http://purl.org/dc/elements/1.1/" xmlns:xl="http://www.w3.org/1999/xlink" version="1.1" xmlns="http://www.w3.org/2000/svg" viewBox="252 52 48 48" width="48" height="48">
  <defs/>
  <metadata> Produced by OmniGraffle 7.18.5\n2021-08-23 11:32:44 +0000</metadata>
  <g id="Canvas_1" stroke-opacity="1" fill-opacity="1" stroke-dasharray="none" stroke="none" fill="none">
    <title>Canvas 1</title>
    <g id="Canvas_1_Layer_1">
      <title>Layer 1</title>
      <g id="Graphic_18">
        <path d="M 252 76 L 276 52 L 300 52 L 252 100 Z" fill="#ea5a09"/>
      </g>
      <g id="Group_23">
        <title/>
        <g id="Graphic_19">
          <path d="M 258.86386 80.23775 L 256.45616 77.83006 L 258.4714 75.8148 C 258.69062 75.5956 258.90982 75.40114 259.12902 75.23144 C 259.34823 75.06173 259.5745 74.94506 259.80785 74.88142 C 260.0412 74.81778 260.27807 74.82132 260.5185 74.89203 C 260.7589 74.96274 261.01346 75.13244 261.28216 75.40114 C 261.68522 75.8042 261.862 76.23199 261.8125 76.68454 C 261.763 77.13709 261.45187 77.64974 260.8791 78.2225 Z M 254.6 77.98915 L 262.17312 85.56227 L 265.8324 81.90299 C 266.20716 81.52822 266.47586 81.13578 266.6385 80.72566 C 266.80113 80.31553 266.8789 79.91249 266.87184 79.516505 C 266.86477 79.12052 266.77992 78.742225 266.61728 78.3816 C 266.45465 78.02097 266.23545 77.70278 265.95967 77.427 C 265.49298 76.96031 264.97326 76.68808 264.4005 76.6103 C 263.82774 76.53251 263.25853 76.67747 262.69284 77.04517 L 262.67163 77.02395 C 262.89083 76.521905 262.95094 76.02694 262.85194 75.53903 C 262.75294 75.05112 262.50192 74.60565 262.09887 74.2026 C 261.71703 73.82076 261.30868 73.58565 260.8738 73.49726 C 260.43894 73.40887 260.0235 73.41417 259.62753 73.51317 C 259.44368 73.555595 259.25454 73.63868 259.06008 73.76242 C 258.86562 73.88617 258.66764 74.03112 258.4661 74.19729 C 258.26458 74.363465 258.06836 74.53847 257.87744 74.72232 C 257.68652 74.90617 257.50975 75.07941 257.3471 75.242045 Z M 262.33222 83.70611 L 259.7124 81.08628 L 262.01402 78.78465 C 262.22615 78.57252 262.45066 78.3869 262.68754 78.2278 C 262.92442 78.0687 263.1666 77.96087 263.4141 77.9043 C 263.66158 77.84773 263.9126 77.8548 264.16716 77.925515 C 264.42172 77.99623 264.67274 78.15532 264.92023 78.40281 C 265.3445 78.82708 265.55132 79.284925 265.5407 79.77637 C 265.5301 80.26781 265.30207 80.73626 264.8566 81.18174 Z" fill="white"/>
        </g>
        <g id="Graphic_20">
          <path d="M 261.86553 70.72363 L 269.43864 78.29675 L 274.6995 73.03587 L 273.851 72.18734 L 269.59774 76.44059 L 266.9779 73.82076 L 270.91296 69.88571 L 270.06443 69.03718 L 266.12938 72.97223 L 263.72168 70.56453 L 267.9431 66.343106 L 267.09458 65.49458 Z" fill="white"/>
        </g>
        <g id="Graphic_21">
          <path d="M 270.91296 63.37326 L 277.63754 70.09784 L 278.64517 69.090216 L 271.9206 62.36563 L 274.44496 59.84126 L 273.59643 58.99273 L 267.54006 65.0491 L 268.3886 65.89763 Z" fill="white"/>
        </g>
        <g id="Graphic_22">
          <path d="M 279.20732 62.27017 L 276.95872 57.454774 L 276.97993 57.43356 L 281.77412 59.70337 Z M 275.51622 57.072936 L 280.1407 67.594685 L 281.16954 66.565844 L 279.73765 63.4369 L 282.94084 60.2337 L 286.04858 61.68681 L 287.16227 60.573114 L 276.6299 55.95924 Z" fill="white"/>
        </g>
      </g>
    </g>
  </g>
</svg>
