<?xml version="1.0" encoding="utf-8"?>
<!-- Generator: Adobe Illustrator 17.0.0, SVG Export Plug-In . SVG Version: 6.00 Build 0)  -->
<!DOCTYPE svg PUBLIC "-//W3C//DTD SVG 1.1//EN" "http://www.w3.org/Graphics/SVG/1.1/DTD/svg11.dtd">
<svg version="1.1" id="Layer_1" xmlns="http://www.w3.org/2000/svg" xmlns:xlink="http://www.w3.org/1999/xlink" x="0px" y="0px"
	 width="254px" height="64px" viewBox="0 0 254 64" enable-background="new 0 0 254 64" xml:space="preserve">
<g>
	<g>
		<path fill="#FFFFFF" d="M88.671,35.448h10.883c0-2.775-2.298-4.986-5.246-4.986C91.229,30.462,89.148,32.63,88.671,35.448
			 M88.671,38.787c0.39,3.426,2.819,5.334,6.027,5.334c2.862,0,4.77-1.691,5.724-2.819l3.729,2.428
			c-1.735,2.515-5.507,4.683-9.843,4.683c-5.897,0-10.927-4.032-10.927-10.58c0-6.547,4.813-11.404,11.1-11.404
			c6.331,0,10.016,5.073,10.016,10.32c0,0.738-0.043,1.387-0.086,2.038H88.671z"/>
		<path fill="#FFFFFF" d="M113.601,42.993h5.853c3.166,0,6.418-1.04,6.418-4.509c0-3.122-2.385-4.423-6.2-4.423h-6.071V42.993z
			 M113.601,29.812h5.94c2.862,0,5.161-1.257,5.161-4.119c0-2.775-2.255-3.903-5.724-3.903h-5.377V29.812z M107.964,17.064h12.184
			c4.727,0,10.19,1.691,10.19,7.848c0,3.382-2.081,5.724-5.159,6.634v0.087c3.685,0.564,6.546,3.165,6.546,7.371
			c0,6.547-5.983,8.759-12.531,8.759h-11.23V17.064z"/>
		<rect x="135.236" y="14.983" fill="#FFFFFF" width="5.636" height="32.78"/>
		<path fill="#FFFFFF" d="M155.439,31.112c-3.642,0-5.81,2.905-5.81,6.244c0,3.382,2.168,6.33,5.81,6.33
			c3.729,0,5.854-2.948,5.854-6.33C161.293,34.017,159.168,31.112,155.439,31.112 M155.439,48.413
			c-6.287,0-11.316-4.466-11.316-11.057c0-6.547,5.029-10.927,11.316-10.927c6.331,0,11.404,4.38,11.404,10.927
			C166.843,43.947,161.77,48.413,155.439,48.413"/>
		<path fill="#FFFFFF" d="M189.301,29.942l-3.208,3.382c-0.955-1.041-2.299-2.255-4.857-2.255c-3.512,0-5.94,2.775-5.94,6.287
			c0,3.469,2.428,6.374,5.983,6.374c2.646,0,4.64-1.691,5.333-2.558l3.166,3.556c-1.691,1.734-4.64,3.685-8.672,3.685
			c-6.851,0-11.448-4.856-11.448-11.057c0-6.287,4.857-10.927,11.534-10.927C184.618,26.429,187.653,27.86,189.301,29.942"/>
		<polygon fill="#FFFFFF" points="201.223,38.137 198.015,41.433 198.015,47.763 192.421,47.763 192.421,14.983 198.015,14.983 
			198.015,35.449 198.143,35.449 205.862,26.994 212.844,26.994 205.341,34.539 213.45,47.763 206.642,47.763 		"/>
		<path fill="#FFFFFF" d="M218.997,35.448h10.883c0-2.775-2.298-4.986-5.247-4.986C221.555,30.462,219.474,32.63,218.997,35.448
			 M218.997,38.787c0.39,3.426,2.819,5.334,6.027,5.334c2.861,0,4.77-1.691,5.724-2.819l3.729,2.428
			c-1.735,2.515-5.507,4.683-9.844,4.683c-5.896,0-10.926-4.032-10.926-10.58c0-6.547,4.813-11.404,11.1-11.404
			c6.331,0,10.016,5.073,10.016,10.32c0,0.738-0.043,1.387-0.086,2.038H218.997z"/>
		<path fill="#FFFFFF" d="M237.986,26.994h5.29v3.252h0.13c1.084-2.212,3.382-3.816,6.114-3.816c0.608,0,1.127,0.043,1.604,0.173
			v4.987c-0.563-0.174-1.517-0.26-2.168-0.26c-3.598,0-5.42,2.818-5.42,5.94v10.493h-5.55V26.994z"/>
	</g>
	<path fill="#FFFFFF" d="M56.901,0H5.821C2.606,0,0,2.606,0,5.821v51.754c0,3.215,2.606,5.821,5.821,5.821h51.08
		c3.215,0,5.821-2.606,5.821-5.821V5.821C62.722,2.606,60.116,0,56.901,0z M51.529,32.71H40.562c-1.372,0-2.494-1.157-2.494-2.529
		s1.122-2.529,2.494-2.529h3.093c-1.741-5.058-6.573-8.767-12.266-8.767c-7.159,0-12.962,5.807-12.962,12.965
		c0,7.159,5.803,12.994,12.962,12.994c5.825,0,10.752-3.703,12.386-9.099h5.128c-1.788,7.756-8.908,13.912-17.425,13.912
		c-9.865,0-17.862-8.012-17.862-17.877c0-9.864,7.997-17.877,17.862-17.877c8.454,0,15.531,5.993,17.384,13.749h2.667
		c1.372,0,2.495,1.157,2.495,2.529S52.901,32.71,51.529,32.71z"/>
</g>
</svg>
