<?xml version="1.0" encoding="UTF-8" standalone="no"?>
<!DOCTYPE svg PUBLIC "-//W3C//DTD SVG 1.1//EN" "http://www.w3.org/Graphics/SVG/1.1/DTD/svg11.dtd">
<svg version="1.1" xmlns:dc="http://purl.org/dc/elements/1.1/" xmlns="http://www.w3.org/2000/svg" xmlns:xl="http://www.w3.org/1999/xlink" viewBox=".2 200.2 282.632 63.4" width="282.632" height="63.4">
  <defs/>
  <g id="Canvas_1" fill="none" fill-opacity="1" stroke-dasharray="none" stroke-opacity="1" stroke="none">
    <title>Canvas 1</title>
    <g id="Canvas_1_White">
      <title>White</title>
      <g id="Graphic_23">
        <path d="M 88.9 235.6 L 99.8 235.6 C 99.8 232.8 97.5 230.6 94.6 230.6 C 91.4 230.7 89.3 232.8 88.9 235.6 Z M 88.9 239 C 89.3 242.4 91.7 244.3 94.9 244.3 C 97.8 244.3 99.7 242.6 100.6 241.5 L 104.3 243.9 C 102.6 246.4 98.8 248.6 94.5 248.6 C 88.6 248.6 83.6 244.6 83.6 238 C 83.6 231.5 88.4 226.6 94.7 226.6 C 101 226.6 104.7 231.7 104.7 236.9 C 104.7 237.6 104.7 238.3 104.6 238.9 L 88.9 238.9 Z M 113.8 243.2 L 119.7 243.2 C 122.9 243.2 126.1 242.2 126.1 238.7 C 126.1 235.6 123.7 234.3 119.9 234.3 L 113.8 234.3 L 113.8 243.2 Z M 113.8 230 L 119.7 230 C 122.6 230 124.9 228.7 124.9 225.9 C 124.9 223.1 122.6 222 119.2 222 L 113.8 222 Z M 108.2 217.3 L 120.4 217.3 C 125.1 217.3 130.6 219 130.6 225.1 C 130.6 228.5 128.5 230.8 125.4 231.7 L 125.4 231.8 C 129.1 232.4 131.9 235 131.9 239.2 C 131.9 245.7 125.9 248 119.4 248 L 108.2 248 Z M 135.4 215.2 L 141 215.2 L 141 248 L 135.4 248 Z M 155.6 231.3 C 152 231.3 149.8 234.2 149.8 237.5 C 149.8 240.9 152 243.8 155.6 243.8 C 159.3 243.8 161.5 240.9 161.5 237.5 C 161.5 234.2 159.4 231.3 155.6 231.3 Z M 155.6 248.6 C 149.3 248.6 144.3 244.1 144.3 237.5 C 144.3 231 149.3 226.6 155.6 226.6 C 161.9 226.6 167 231 167 237.5 C 167 244.1 162 248.6 155.6 248.6 Z M 189.5 230.1 L 186.3 233.5 C 185.3 232.5 184 231.2 181.4 231.2 C 177.9 231.2 175.5 234 175.5 237.5 C 175.5 241 177.9 243.9 181.5 243.9 C 184.1 243.9 186.1 242.2 186.8 241.3 L 190 244.9 C 188.3 246.6 185.4 248.6 181.3 248.6 C 174.4 248.6 169.9 243.7 169.9 237.5 C 169.9 231.2 174.8 226.6 181.4 226.6 C 184.8 226.6 187.9 228.1 189.5 230.1 Z M 201.4 238.3 L 198.2 241.6 L 198.2 247.9 L 192.6 247.9 L 192.6 215.2 L 198.2 215.2 L 198.2 235.7 L 198.3 235.7 L 206 227.2 L 213 227.2 L 205.5 234.7 L 213.6 247.9 L 206.8 247.9 Z M 219.2 235.6 L 230.1 235.6 C 230.1 232.8 227.8 230.6 224.9 230.6 C 221.8 230.7 219.7 232.8 219.2 235.6 Z M 219.2 239 C 219.6 242.4 222 244.3 225.2 244.3 C 228.1 244.3 230 242.6 230.9 241.5 L 234.6 243.9 C 232.9 246.4 229.1 248.6 224.8 248.6 C 218.9 248.6 213.9 244.6 213.9 238 C 213.9 231.5 218.7 226.6 225 226.6 C 231.3 226.6 235 231.7 235 236.9 C 235 237.6 235 238.3 234.9 238.9 L 219.2 238.9 Z M 238.2 227.2 L 243.5 227.2 L 243.5 230.5 L 243.6 230.5 C 244.7 228.2 247.1 226.7 249.7 226.7 C 250.3 226.7 250.8 226.7 251.3 226.9 L 251.3 231.9 C 250.7 231.7 249.8 231.6 249.1 231.6 C 245.5 231.6 243.7 234.4 243.7 237.5 L 243.7 248 L 238.2 248 Z M 57.1 200.2 L 6 200.2 C 2.8 200.2 .2 202.8 .2 206 L .2 257.8 C .2 261 2.8 263.6 6 263.6 L 57.1 263.6 C 60.3 263.6 62.9 261 62.9 257.8 L 62.9 206 C 62.9 202.8 60.3 200.2 57.1 200.2 Z M 51.7 232.9 L 40.7 232.9 C 39.3 232.9 38.2 231.7 38.2 230.4 C 38.2 229.1 39.3 227.9 40.7 227.9 L 43.8 227.9 C 42.1 222.8 37.2 219.1 31.5 219.1 C 24.3 219.1 18.5 224.9 18.5 232.1 C 18.5 239.3 24.3 245.1 31.5 245.1 C 37.3 245.1 42.3 241.4 43.9 236 L 49 236 C 47.2 243.8 40.1 249.9 31.6 249.9 C 21.7 249.9 13.7 241.9 13.7 232 C 13.7 222.1 21.7 214.1 31.6 214.1 C 40.1 214.1 47.1 220.1 49 227.8 L 51.7 227.8 C 53.1 227.8 54.2 229 54.2 230.3 C 54.2 231.6 53.1 232.9 51.7 232.9 Z" fill="#fffeff"/>
      </g>
    </g>
    <g id="Canvas_1_Numbers_as_Shapes">
      <title>Numbers as Shapes</title>
      <g id="Graphic_32">
        <title>3</title>
        <path d="M 267.292 230.234 L 268.594 230.234 C 269.322 230.234 270.029 230.192 270.715 230.108 C 271.401 230.024 272.017 229.842 272.563 229.562 C 273.109 229.282 273.55 228.876 273.886 228.344 C 274.222 227.812 274.39 227.098 274.39 226.202 C 274.39 225.054 273.998 224.116 273.214 223.388 C 272.43 222.66 271.408 222.296 270.148 222.296 C 269.14 222.296 268.237 222.583 267.439 223.157 C 266.641 223.731 266.06 224.536 265.696 225.572 L 260.362 224.144 C 260.698 223.052 261.174 222.1 261.79 221.288 C 262.406 220.476 263.134 219.811 263.974 219.293 C 264.814 218.775 265.738 218.39 266.746 218.138 C 267.754 217.886 268.804 217.76 269.896 217.76 C 271.184 217.76 272.402 217.928 273.55 218.264 C 274.698 218.6 275.706 219.097 276.574 219.755 C 277.442 220.413 278.135 221.239 278.653 222.233 C 279.171 223.227 279.43 224.382 279.43 225.698 C 279.43 227.294 278.982 228.715 278.086 229.961 C 277.19 231.207 275.944 232.026 274.348 232.418 L 274.348 232.502 C 276.252 232.782 277.694 233.594 278.674 234.938 C 279.654 236.282 280.144 237.878 280.144 239.726 C 280.144 241.154 279.871 242.414 279.325 243.506 C 278.779 244.598 278.044 245.515 277.12 246.257 C 276.196 246.999 275.125 247.559 273.907 247.937 C 272.689 248.315 271.422 248.504 270.106 248.504 C 268.874 248.504 267.712 248.371 266.62 248.105 C 265.528 247.839 264.541 247.426 263.659 246.866 C 262.777 246.306 262.014 245.585 261.37 244.703 C 260.726 243.821 260.236 242.764 259.9 241.532 L 265.276 240.104 C 265.584 241.336 266.13 242.288 266.914 242.96 C 267.698 243.632 268.762 243.968 270.106 243.968 C 270.778 243.968 271.415 243.856 272.017 243.632 C 272.619 243.408 273.151 243.093 273.613 242.687 C 274.075 242.281 274.439 241.791 274.705 241.217 C 274.971 240.643 275.104 240.006 275.104 239.306 C 275.104 238.354 274.901 237.577 274.495 236.975 C 274.089 236.373 273.571 235.911 272.941 235.589 C 272.311 235.267 271.604 235.05 270.82 234.938 C 270.036 234.826 269.266 234.77 268.51 234.77 L 267.292 234.77 Z" fill="white"/>
      </g>
    </g>
  </g>
</svg>
