<?xml version="1.0" encoding="UTF-8" standalone="no"?>
<!DOCTYPE svg PUBLIC "-//W3C//DTD SVG 1.1//EN" "http://www.w3.org/Graphics/SVG/1.1/DTD/svg11.dtd">
<svg version="1.1" xmlns:dc="http://purl.org/dc/elements/1.1/" xmlns="http://www.w3.org/2000/svg" xmlns:xl="http://www.w3.org/1999/xlink" viewBox="0 0 283.264 63.4" width="283.264" height="63.4">
  <defs/>
  <g id="Canvas_1" fill="none" fill-opacity="1" stroke-dasharray="none" stroke-opacity="1" stroke="none">
    <title>Canvas 1</title>
    <g id="Canvas_1_Black">
      <title>Black</title>
      <g id="Graphic_4">
        <path d="M 88.7 35.4 L 99.6 35.4 C 99.6 32.6 97.3 30.4 94.4 30.4 C 91.2 30.5 89.1 32.6 88.7 35.4 Z M 88.7 38.8 C 89.1 42.2 91.5 44.1 94.7 44.1 C 97.6 44.1 99.5 42.4 100.4 41.3 L 104.1 43.7 C 102.4 46.2 98.6 48.4 94.3 48.4 C 88.4 48.4 83.4 44.4 83.4 37.8 C 83.4 31.3 88.2 26.4 94.5 26.4 C 100.8 26.4 104.5 31.5 104.5 36.7 C 104.5 37.4 104.5 38.1 104.4 38.7 L 88.7 38.7 Z M 113.6 43 L 119.5 43 C 122.7 43 125.9 42 125.9 38.5 C 125.9 35.4 123.5 34.1 119.7 34.1 L 113.6 34.1 L 113.6 43 Z M 113.6 29.8 L 119.5 29.8 C 122.4 29.8 124.7 28.5 124.7 25.7 C 124.7 22.9 122.4 21.8 119 21.8 L 113.6 21.8 Z M 108 17.1 L 120.2 17.1 C 124.9 17.1 130.4 18.8 130.4 24.9 C 130.4 28.3 128.3 30.6 125.2 31.5 L 125.2 31.6 C 128.9 32.2 131.7 34.8 131.7 39 C 131.7 45.5 125.7 47.8 119.2 47.8 L 108 47.8 Z M 135.2 15 L 140.8 15 L 140.8 47.8 L 135.2 47.8 Z M 155.4 31.1 C 151.8 31.1 149.6 34 149.6 37.3 C 149.6 40.7 151.8 43.6 155.4 43.6 C 159.1 43.6 161.3 40.7 161.3 37.3 C 161.3 34 159.2 31.1 155.4 31.1 Z M 155.4 48.4 C 149.1 48.4 144.1 43.9 144.1 37.3 C 144.1 30.8 149.1 26.4 155.4 26.4 C 161.7 26.4 166.8 30.8 166.8 37.3 C 166.8 43.9 161.8 48.4 155.4 48.4 Z M 189.3 29.9 L 186.1 33.3 C 185.1 32.3 183.8 31 181.2 31 C 177.7 31 175.3 33.8 175.3 37.3 C 175.3 40.8 177.7 43.7 181.3 43.7 C 183.9 43.7 185.9 42 186.6 41.1 L 189.8 44.7 C 188.1 46.4 185.2 48.4 181.1 48.4 C 174.2 48.4 169.7 43.5 169.7 37.3 C 169.7 31 174.6 26.4 181.2 26.4 C 184.6 26.4 187.7 27.9 189.3 29.9 Z M 201.2 38.1 L 198 41.4 L 198 47.7 L 192.4 47.7 L 192.4 15 L 198 15 L 198 35.5 L 198.1 35.5 L 205.8 27 L 212.8 27 L 205.3 34.5 L 213.4 47.7 L 206.6 47.7 Z M 219 35.4 L 229.9 35.4 C 229.9 32.6 227.6 30.4 224.7 30.4 C 221.6 30.5 219.5 32.6 219 35.4 Z M 219 38.8 C 219.4 42.2 221.8 44.1 225 44.1 C 227.9 44.1 229.8 42.4 230.7 41.3 L 234.4 43.7 C 232.7 46.2 228.9 48.4 224.6 48.4 C 218.7 48.4 213.7 44.4 213.7 37.8 C 213.7 31.3 218.5 26.4 224.8 26.4 C 231.1 26.4 234.8 31.5 234.8 36.7 C 234.8 37.4 234.8 38.1 234.7 38.7 L 219 38.7 Z M 238 27 L 243.3 27 L 243.3 30.3 L 243.4 30.3 C 244.5 28 246.9 26.5 249.5 26.5 C 250.1 26.5 250.6 26.5 251.1 26.7 L 251.1 31.7 C 250.5 31.5 249.6 31.4 248.9 31.4 C 245.3 31.4 243.5 34.2 243.5 37.3 L 243.5 47.8 L 238 47.8 Z M 56.9 0 L 5.8 0 C 2.6 0 0 2.6 0 5.8 L 0 57.6 C 0 60.8 2.6 63.4 5.8 63.4 L 56.9 63.4 C 60.1 63.4 62.7 60.8 62.7 57.6 L 62.7 5.8 C 62.7 2.6 60.1 0 56.9 0 Z M 51.5 32.7 L 40.5 32.7 C 39.1 32.7 38 31.5 38 30.2 C 38 28.9 39.1 27.7 40.5 27.7 L 43.6 27.7 C 41.9 22.6 37 18.9 31.3 18.9 C 24.1 18.9 18.3 24.7 18.3 31.9 C 18.3 39.1 24.1 44.9 31.3 44.9 C 37.1 44.9 42.1 41.2 43.7 35.8 L 48.8 35.8 C 47 43.6 39.9 49.7 31.4 49.7 C 21.5 49.7 13.5 41.7 13.5 31.8 C 13.5 21.9 21.5 13.9 31.4 13.9 C 39.9 13.9 46.9 19.9 48.8 27.6 L 51.5 27.6 C 52.9 27.6 54 28.8 54 30.1 C 54 31.4 52.9 32.7 51.5 32.7 Z" fill="#191919"/>
      </g>
    </g>
    <g id="Canvas_1_Numbers_as_Shapes">
      <title>Numbers as Shapes</title>
      <g id="Graphic_34">
        <title>3</title>
        <path d="M 267.724 30.034 L 269.026 30.034 C 269.754 30.034 270.461 29.992 271.147 29.908 C 271.833 29.824 272.449 29.642 272.995 29.362 C 273.541 29.082 273.982 28.676003 274.318 28.144 C 274.654 27.611997 274.822 26.898004 274.822 26.002 C 274.822 24.853994 274.43 23.916004 273.646 23.188 C 272.862 22.459996 271.84 22.096 270.58 22.096 C 269.572 22.096 268.669 22.382997 267.871 22.957 C 267.073 23.531003 266.492 24.335995 266.128 25.372 L 260.794 23.944 C 261.13 22.851995 261.606 21.900004 262.222 21.088 C 262.838 20.275996 263.566 19.611003 264.406 19.093 C 265.246 18.574997 266.17 18.190001 267.178 17.938 C 268.186 17.685999 269.236 17.56 270.328 17.56 C 271.616 17.56 272.834 17.727998 273.982 18.064 C 275.13 18.400002 276.138 18.896997 277.006 19.555 C 277.874 20.213003 278.567 21.038995 279.085 22.033 C 279.603 23.027005 279.862 24.181993 279.862 25.498 C 279.862 27.094008 279.414 28.514994 278.518 29.761 C 277.622 31.007006 276.376 31.825998 274.78 32.218 L 274.78 32.302 C 276.684 32.582 278.126 33.393993 279.106 34.738 C 280.086 36.082007 280.576 37.67799 280.576 39.526 C 280.576 40.954007 280.303 42.213995 279.757 43.306 C 279.211 44.398005 278.476 45.314996 277.552 46.057 C 276.628 46.799004 275.557 47.359 274.339 47.737 C 273.121 48.115 271.854 48.304 270.538 48.304 C 269.306 48.304 268.144 48.171 267.052 47.905 C 265.96 47.639 264.973 47.226 264.091 46.666 C 263.209 46.105997 262.446 45.385004 261.802 44.503 C 261.158 43.620996 260.668 42.564006 260.332 41.332 L 265.708 39.904 C 266.016 41.136006 266.562 42.087997 267.346 42.76 C 268.13 43.432003 269.194 43.768 270.538 43.768 C 271.21 43.768 271.847 43.656 272.449 43.432 C 273.051 43.208 273.583 42.893 274.045 42.487 C 274.507 42.081 274.871 41.591003 275.137 41.017 C 275.403 40.442997 275.536 39.806004 275.536 39.106 C 275.536 38.153995 275.333 37.377003 274.927 36.775 C 274.521 36.172997 274.003 35.711 273.373 35.389 C 272.743 35.067 272.036 34.85 271.252 34.738 C 270.468 34.626 269.698 34.57 268.942 34.57 L 267.724 34.57 Z" fill="#191919"/>
      </g>
    </g>
  </g>
</svg>
