<?xml version="1.0" standalone="no"?>
<!DOCTYPE svg PUBLIC "-//W3C//DTD SVG 20010904//EN"
 "http://www.w3.org/TR/2001/REC-SVG-20010904/DTD/svg10.dtd">
<svg version="1.0" xmlns="http://www.w3.org/2000/svg"
 width="260.000000pt" height="260.000000pt" viewBox="0 0 260.000000 260.000000"
 preserveAspectRatio="xMidYMid meet">
<metadata>
Created by potrace 1.11, written by Peter Selinger 2001-2013
</metadata>
<g transform="translate(0.000000,260.000000) scale(0.100000,-0.100000)"
fill="#000000" stroke="none">
<path d="M1100 2315 c-388 -83 -682 -356 -797 -740 -25 -83 -27 -104 -27 -270
-1 -143 3 -193 17 -245 87 -316 274 -549 552 -686 395 -194 838 -126 1160 178
136 129 226 268 280 434 14 42 25 80 25 85 0 5 -69 9 -152 9 l-153 0 -28 -69
c-90 -222 -278 -382 -514 -437 -87 -20 -248 -20 -335 0 -247 57 -448 242 -535
491 -26 74 -28 92 -28 230 0 143 1 154 31 238 44 122 87 189 179 282 91 91
174 143 290 183 73 24 93 27 230 27 137 0 157 -3 230 -27 185 -63 348 -203
432 -373 45 -89 48 -85 -73 -85 -127 0 -160 -14 -194 -86 -36 -74 -15 -140 60
-192 33 -22 36 -22 384 -22 314 0 355 2 386 18 103 51 108 201 8 262 -27 16
-51 20 -130 20 -80 0 -98 3 -98 15 0 24 -40 135 -73 200 -80 161 -243 338
-395 429 -96 57 -226 108 -334 130 -95 20 -307 20 -398 1z"/>
</g>
</svg>
