<?xml version="1.0" encoding="utf-8"?>
<!-- Generator: Adobe Illustrator 17.0.0, SVG Export Plug-In . SVG Version: 6.00 Build 0)  -->
<!DOCTYPE svg PUBLIC "-//W3C//DTD SVG 1.1//EN" "http://www.w3.org/Graphics/SVG/1.1/DTD/svg11.dtd">
<svg version="1.1" id="Layer_1" xmlns="http://www.w3.org/2000/svg" xmlns:xlink="http://www.w3.org/1999/xlink" x="0px" y="0px"
	 width="30px" height="25px" viewBox="0 0 30 25" enable-background="new 0 0 30 25" xml:space="preserve">
<g>
	<g>
		<path d="M11.5,4.5v16h-9v-16H11.5 M13,3H1v19h12V3L13,3z"/>
	</g>
	<g>
		<path d="M27.5,4.5v6h-11v-6H27.5 M29,3H15v9h14V3L29,3z"/>
	</g>
	<g>
		<path d="M19.5,15.5v5h-3v-5H19.5 M21,14h-6v8h6V14L21,14z"/>
	</g>
	<g>
		<path d="M27.5,15.5v5h-3v-5H27.5 M29,14h-6v8h6V14L29,14z"/>
	</g>
</g>
</svg>
