<?xml version="1.0" encoding="utf-8"?>
<!-- Generator: Adobe Illustrator 17.0.0, SVG Export Plug-In . SVG Version: 6.00 Build 0)  -->
<!DOCTYPE svg PUBLIC "-//W3C//DTD SVG 1.1//EN" "http://www.w3.org/Graphics/SVG/1.1/DTD/svg11.dtd">
<svg version="1.1" id="Layer_1" xmlns="http://www.w3.org/2000/svg" xmlns:xlink="http://www.w3.org/1999/xlink" x="0px" y="0px"
	 width="100.5px" height="75.833px" viewBox="0 0 100.5 75.833" enable-background="new 0 0 100.5 75.833" xml:space="preserve">
<g>
	<path d="M96.704,25.119H75.101c-1.873,0-3.397,1.524-3.397,3.397v43.602c0,1.873,1.524,3.397,3.397,3.397h21.603
		c1.872,0,3.397-1.524,3.397-3.397V28.517C100.101,26.643,98.577,25.119,96.704,25.119z M97.01,67.03H74.794V31.291H97.01V67.03z"/>
	<path d="M66.205,46.318H22.402v-33h59v6.302c0,1.104,0.896,2,2,2h8.997c1.104,0,2-0.896,2-2V6.821c0-1.718-0.692-3.396-1.9-4.603
		c-1.207-1.208-2.885-1.9-4.603-1.9H15.902c-1.718,0-3.396,0.692-4.603,1.9c-1.208,1.207-1.9,2.885-1.9,4.603v44.5h-7
		c-1.104,0-2,0.896-2,2v7.5c0,1.995,1.505,3.5,3.5,3.5h62.306c1.104,0,2-0.896,2-2V48.318
		C68.205,47.213,67.309,46.318,66.205,46.318z M64.205,60.321H4.399v-5h6.963c0.648,0,1.256-0.313,1.631-0.842s0.4-1.186,0.4-1.833
		c0-0.406,0.006-0.825,0.006-0.825v-45c0-0.655,0.272-1.319,0.728-1.775c0.449-0.449,1.129-0.728,1.775-0.728h71.994
		c0.655,0,1.318,0.272,1.774,0.728c0.449,0.45,0.729,1.13,0.729,1.775v10.799h-4.997v-6.302c0-1.104-0.896-2-2-2h-63
		c-1.104,0-2,0.896-2,2v37c0,1.104,0.896,2,2,2h43.803V60.321z"/>
</g>
</svg>
