<?xml version="1.0" encoding="utf-8"?>
<!-- Generator: Adobe Illustrator 17.0.0, SVG Export Plug-In . SVG Version: 6.00 Build 0)  -->
<!DOCTYPE svg PUBLIC "-//W3C//DTD SVG 1.1//EN" "http://www.w3.org/Graphics/SVG/1.1/DTD/svg11.dtd">
<svg version="1.1" id="Layer_1" xmlns="http://www.w3.org/2000/svg" xmlns:xlink="http://www.w3.org/1999/xlink" x="0px" y="0px"
	 width="37.559px" height="24.945px" viewBox="0 0 37.559 24.945" enable-background="new 0 0 37.559 24.945" xml:space="preserve">
<path d="M35.749,24.474H1.81c-0.873,0-1.53-0.658-1.53-1.53v-3.473c0-0.553,0.448-1,1-1h2.182l0-15.408
	c0-0.685,0.276-1.354,0.758-1.835C4.245,1.201,4.28,1.171,4.314,1.144c0.479-0.431,1.107-0.673,1.739-0.673h25.453
	c0.635,0,1.266,0.245,1.739,0.673c0.034,0.027,0.069,0.059,0.095,0.084c0.481,0.481,0.758,1.15,0.758,1.835v15.408h2.182
	c0.553,0,1,0.447,1,1v3.473C37.28,23.816,36.621,24.474,35.749,24.474z M2.28,22.474h33v-2.003h-1.997c-0.553,0-1-0.447-1-1V3.063
	c0-0.138-0.056-0.287-0.145-0.392c-0.012-0.01-0.022-0.019-0.032-0.027c-0.117-0.11-0.272-0.173-0.415-0.173H5.874
	c-0.143,0-0.299,0.062-0.407,0.164C5.456,2.646,5.443,2.657,5.428,2.67C5.339,2.775,5.282,2.924,5.282,3.063l0,16.408
	c0,0.266-0.105,0.52-0.293,0.707s-0.442,0.293-0.707,0.293H2.28V22.474z M29.282,19.471h-21c-0.552,0-1-0.447-1-1v-13
	c0-0.553,0.448-1,1-1h21c0.553,0,1,0.447,1,1v13C30.282,19.024,29.835,19.471,29.282,19.471z M9.282,17.524h19V6.443h-19V17.524z"/>
</svg>
