<?xml version="1.0" encoding="utf-8"?>
<!-- Generator: Adobe Illustrator 17.0.0, SVG Export Plug-In . SVG Version: 6.00 Build 0)  -->
<!DOCTYPE svg PUBLIC "-//W3C//DTD SVG 1.1//EN" "http://www.w3.org/Graphics/SVG/1.1/DTD/svg11.dtd">
<svg version="1.1" id="Layer_1" xmlns="http://www.w3.org/2000/svg" xmlns:xlink="http://www.w3.org/1999/xlink" x="0px" y="0px"
	 height="64" viewBox="0 0 64 64" width="64" xml:space="preserve">
<g>
	<path d="M56.901,0H5.821C2.606,0,0,2.606,0,5.821v51.754c0,3.215,2.606,5.821,5.821,5.821h51.08
		c3.215,0,5.821-2.606,5.821-5.821V5.821C62.722,2.606,60.116,0,56.901,0z M51.529,32.71H40.562c-1.372,0-2.494-1.157-2.494-2.529
		s1.122-2.529,2.494-2.529h3.093c-1.741-5.058-6.573-8.767-12.266-8.767c-7.159,0-12.962,5.807-12.962,12.965
		c0,7.159,5.803,12.994,12.962,12.994c5.825,0,10.752-3.703,12.386-9.099h5.128c-1.788,7.756-8.908,13.912-17.425,13.912
		c-9.865,0-17.862-8.012-17.862-17.877c0-9.864,7.997-17.877,17.862-17.877c8.454,0,15.531,5.993,17.384,13.749h2.667
		c1.372,0,2.495,1.157,2.495,2.529S52.901,32.71,51.529,32.71z"/>
</g>
</svg>
