<?xml version="1.0" encoding="utf-8"?>
<!-- Generator: Adobe Illustrator 18.0.0, SVG Export Plug-In . SVG Version: 6.00 Build 0)  -->
<!DOCTYPE svg PUBLIC "-//W3C//DTD SVG 1.0//EN" "http://www.w3.org/TR/2001/REC-SVG-20010904/DTD/svg10.dtd">
<svg xmlns="http://www.w3.org/2000/svg" xmlns:xlink="http://www.w3.org/1999/xlink" version="1.0" id="Layer_1" x="0px" y="0px" viewBox="0 0 24 24" enable-background="new 0 0 24 24" xml:space="preserve" width="48px" height="48px">
<path d="M12,3C9,3,6.5,5.5,6.5,8.5S9,14,12,14c3,0,5.5-2.5,5.5-5.5S15,3,12,3z M12,12.9c-1.8,0-3.3-1.5-3.3-3.3s1.5-3.3,3.3-3.3  c1.8,0,3.3,1.5,3.3,3.3S13.8,12.9,12,12.9z M12,10.2c-0.8,0-1.4-0.6-1.4-1.4c0-0.8,0.6-1.4,1.4-1.4c0.8,0,1.4,0.6,1.4,1.4  C13.4,9.6,12.8,10.2,12,10.2z"/>
<path fill="none" stroke="currentColor" stroke-width="2" stroke-miterlimit="10" d="M14.9,4.2c0.3-0.3,1-1.2,1.6-1.2C17,3,19,4.4,19,5  c0,0.9-1.4,2.2-2,2.3"/>
<path fill="none" stroke="currentColor" stroke-width="2" stroke-miterlimit="10" d="M9.1,4.2C8.8,3.9,8.1,3,7.5,3C7,3,5,4.4,5,5  C5,6,6.4,7.3,7,7.4"/>
<path d="M19.9,19.6c-0.4,1.6-1.7,2.7-3.1,2.3c-1.3-0.3-2.1-1.9-1.7-3.5c0.4-1.6,1.7-2.7,3.1-2.3C19.5,16.4,20.3,18,19.9,19.6z"/>
<path d="M12,22c1.3,0,2.2-1,2.2-1c-0.8-5.7,2.7-6.2,3.8-6l1.8,0.5c0.9,0.2,1.8-0.3,2.1-1.2v0c0.3-0.9-0.2-2-1.1-2.3l-3.8-1.4  c0,0-2.7,3-4.9,3C11,15.8,12,22,12,22z"/>
<path d="M4.1,19.6c0.4,1.6,1.7,2.7,3.1,2.3c1.3-0.3,2.1-1.9,1.7-3.5c-0.4-1.6-1.7-2.7-3.1-2.3C4.5,16.4,3.7,18,4.1,19.6z"/>
<path d="M12,22c-1.3,0-2.2-1-2.2-1c0.8-5.7-2.7-6.2-3.8-6l-1.8,0.5c-0.9,0.2-1.8-0.3-2.1-1.2l0,0c-0.3-0.9,0.2-2,1.1-2.3l3.8-1.4  c0,0,2.7,3,4.9,3C13,15.8,12,22,12,22z"/>
</svg>
