<svg version="1.1" id="Settings_alt_2" xmlns="http://www.w3.org/2000/svg" x="0px"
	 y="0px" width="337px" height="337px" viewBox="0 0 337 337" enable-background="new 0 0 337 337" xml:space="preserve">
<g>
	<path d="M209.788,336.709h-82.576v-44.98c-5.686-1.911-11.244-4.223-16.63-6.917L78.755,316.64l-58.393-58.391l31.828-31.826
		c-2.694-5.387-5.007-10.946-6.92-16.633H0.29v-82.577h44.98c1.912-5.689,4.225-11.249,6.917-16.633L20.363,78.753l58.392-58.391
		l31.827,31.825c5.383-2.692,10.941-5.004,16.63-6.917V0.291h82.576v44.98c5.689,1.913,11.248,4.225,16.632,6.917l31.825-31.825
		l58.393,58.391l-31.827,31.826c2.693,5.385,5.007,10.945,6.919,16.633h44.98v82.577h-44.981
		c-1.912,5.685-4.225,11.244-6.919,16.633l31.828,31.826l-58.393,58.391l-31.825-31.827c-5.387,2.694-10.946,5.006-16.632,6.917
		V336.709z M147.212,316.709h42.576v-40.051l7.392-1.997c9.076-2.452,17.844-6.098,26.06-10.837l6.644-3.832l28.362,28.363
		l30.107-30.107l-28.363-28.361l3.831-6.644c4.74-8.222,8.389-16.991,10.842-26.064l1.998-7.39h40.05v-42.577h-40.05l-1.998-7.39
		c-2.456-9.083-6.104-17.851-10.84-26.061l-3.834-6.645l28.364-28.364l-30.107-30.107l-28.362,28.363l-6.645-3.833
		c-8.204-4.733-16.973-8.38-26.062-10.839l-7.389-1.999V20.291h-42.576v40.047l-7.388,1.999
		c-9.089,2.459-17.856,6.106-26.061,10.839l-6.644,3.833L78.755,48.646L48.647,78.753l28.362,28.364l-3.834,6.644
		c-4.734,8.206-8.381,16.974-10.838,26.061l-1.998,7.39H20.29v42.577h40.05l1.998,7.39c2.455,9.079,6.103,17.848,10.841,26.063
		l3.833,6.645l-28.364,28.362l30.107,30.107l28.364-28.363l6.644,3.832c8.215,4.739,16.982,8.385,26.058,10.837l7.392,1.998V316.709
		z M168.501,235.902c-37.167,0-67.404-30.238-67.404-67.405c0-37.164,30.237-67.399,67.404-67.399s67.404,30.235,67.404,67.399
		C235.905,205.665,205.668,235.902,168.501,235.902z M168.501,121.098c-26.139,0-47.404,21.263-47.404,47.399
		c0,26.139,21.266,47.405,47.404,47.405s47.404-21.266,47.404-47.405C215.905,142.361,194.64,121.098,168.501,121.098z"/>
</g>
</svg>
