<?xml version="1.0" encoding="UTF-8" standalone="no"?>
<!-- Generator: Adobe Illustrator 17.0.0, SVG Export Plug-In . SVG Version: 6.00 Build 0)  -->

<svg
   xmlns:dc="http://purl.org/dc/elements/1.1/"
   xmlns:cc="http://creativecommons.org/ns#"
   xmlns:rdf="http://www.w3.org/1999/02/22-rdf-syntax-ns#"
   xmlns:svg="http://www.w3.org/2000/svg"
   xmlns="http://www.w3.org/2000/svg"
   xmlns:sodipodi="http://sodipodi.sourceforge.net/DTD/sodipodi-0.dtd"
   xmlns:inkscape="http://www.inkscape.org/namespaces/inkscape"
   version="1.1"
   id="Layer_1"
   x="0px"
   y="0px"
   width="48"
   height="48"
   viewBox="0 0 48 48"
   enable-background="new 0 0 30 25"
   xml:space="preserve"
   inkscape:version="0.48.5 r10040"
   sodipodi:docname="tracking.svg"><metadata
     id="metadata3088"><rdf:RDF><cc:Work
         rdf:about=""><dc:format>image/svg+xml</dc:format><dc:type
           rdf:resource="http://purl.org/dc/dcmitype/StillImage" /></cc:Work></rdf:RDF></metadata><defs
     id="defs3086" /><sodipodi:namedview
     pagecolor="#ffffff"
     bordercolor="#666666"
     borderopacity="1"
     objecttolerance="10"
     gridtolerance="10"
     guidetolerance="10"
     inkscape:pageopacity="0"
     inkscape:pageshadow="2"
     inkscape:window-width="834"
     inkscape:window-height="796"
     id="namedview3084"
     showgrid="false"
     inkscape:zoom="12.08"
     inkscape:cx="24.933775"
     inkscape:cy="22.433775"
     inkscape:window-x="197"
     inkscape:window-y="0"
     inkscape:window-maximized="0"
     inkscape:current-layer="Layer_1" /><g
     id="g3070"
     transform="matrix(1.5987809,0,0,1.5987809,0.01848635,4.0160381)"><g
       id="g3072"><path
         d="m 15.013,5.52 c 0.871,0 1.746,0.092 2.601,0.274 2.552,0.542 5.199,1.896 7.87,4.024 1.222,0.973 2.146,1.83 2.889,2.682 -0.223,0.25 -0.47,0.503 -0.761,0.792 -1.899,1.885 -3.914,3.378 -5.988,4.438 -1.549,0.791 -2.971,1.296 -4.349,1.542 -0.769,0.138 -1.543,0.207 -2.301,0.207 -0.871,0 -1.747,-0.092 -2.602,-0.274 C 9.82,18.663 7.172,17.309 4.502,15.182 3.282,14.21 2.359,13.354 1.614,12.5 1.838,12.248 2.085,11.996 2.376,11.708 4.276,9.823 6.29,8.329 8.364,7.27 9.912,6.479 11.335,5.974 12.713,5.728 13.481,5.59 14.256,5.52 15.013,5.52 m 0,-1.5 c -0.855,0 -1.71,0.078 -2.565,0.231 -1.663,0.298 -3.267,0.916 -4.767,1.683 -2.349,1.2 -4.494,2.854 -6.363,4.709 -0.346,0.343 -0.69,0.694 -1.004,1.066 -0.419,0.496 -0.419,1.084 0,1.58 0.957,1.134 2.095,2.143 3.253,3.066 2.494,1.987 5.345,3.648 8.492,4.317 0.969,0.206 1.941,0.307 2.914,0.307 0.854,0 1.71,-0.078 2.565,-0.231 1.663,-0.298 3.266,-0.916 4.767,-1.683 2.349,-1.2 4.494,-2.854 6.363,-4.709 0.346,-0.343 0.69,-0.694 1.004,-1.066 0.167,-0.168 0.277,-0.385 0.313,-0.617 0,-10e-4 0,-0.003 0.001,-0.004 0.002,-0.01 0.003,-0.021 0.004,-0.031 0.001,-0.009 0.003,-0.018 0.004,-0.027 0.001,-0.006 0.001,-0.012 0.001,-0.019 10e-4,-0.012 0.002,-0.024 0.003,-0.037 C 29.999,12.538 30,12.519 30,12.5 30,12.481 29.999,12.463 29.998,12.444 29.997,12.431 29.996,12.419 29.995,12.407 29.994,12.401 29.994,12.394 29.994,12.388 29.993,12.379 29.992,12.37 29.99,12.361 29.989,12.35 29.988,12.34 29.986,12.33 c 0,-10e-4 -0.001,-0.003 -0.001,-0.004 C 29.948,12.094 29.839,11.877 29.672,11.709 28.715,10.575 27.577,9.565 26.419,8.643 23.926,6.656 21.074,4.995 17.927,4.326 16.958,4.121 15.986,4.02 15.013,4.02 l 0,0 z"
         id="path3074"
         inkscape:connector-curvature="0" /></g></g><g
     id="g3076"
     transform="matrix(1.5987809,0,0,1.5987809,0.0182865,4.0152388)"><g
       id="g3078"><path
         d="m 15,8.414 c 2.253,0 4.086,1.833 4.086,4.086 0,2.253 -1.833,4.086 -4.086,4.086 -2.253,0 -4.086,-1.833 -4.086,-4.086 0,-2.253 1.833,-4.086 4.086,-4.086 m 0,-1.5 c -3.085,0 -5.586,2.501 -5.586,5.586 0,3.085 2.501,5.586 5.586,5.586 3.085,0 5.586,-2.501 5.586,-5.586 0,-3.085 -2.501,-5.586 -5.586,-5.586 l 0,0 z"
         id="path3080"
         inkscape:connector-curvature="0" /></g></g><circle
     cx="15"
     cy="12.5"
     r="1.841"
     id="circle3082"
     sodipodi:cx="15"
     sodipodi:cy="12.5"
     sodipodi:rx="1.841"
     sodipodi:ry="1.841"
     transform="matrix(1.5987809,0,0,1.5987809,0.0182865,4.0152388)" /></svg>